<?xml version="1.0" standalone="no"?><!DOCTYPE svg PUBLIC "-//W3C//DTD SVG 1.1//EN" "http://www.w3.org/Graphics/SVG/1.1/DTD/svg11.dtd"><svg t="1727325904428" class="icon" viewBox="0 0 1024 1024" version="1.1" xmlns="http://www.w3.org/2000/svg" p-id="1477" width="200" height="200" data-spm-anchor-id="a313x.search_index.0.i2.27cf3a81FUkDaH" xmlns:xlink="http://www.w3.org/1999/xlink"><path d="M938.666667 298.666667V213.333333h-128V85.333333h-85.333334v128h-170.666666V85.333333h-85.333334v128H298.666667V85.333333H213.333333v128H85.333333v85.333334h128v170.666666H85.333333v85.333334h128v170.666666H85.333333v85.333334h128v128h85.333334v-128h170.666666v128h85.333334v-128h170.666666v128h85.333334v-128h128v-85.333334h-128v-170.666666h128v-85.333334h-128V298.666667h128zM298.666667 298.666667h170.666666v170.666666H298.666667V298.666667z m0 426.666666v-170.666666h170.666666v170.666666H298.666667z m426.666666 0h-170.666666v-170.666666h170.666666v170.666666z m0-256h-170.666666V298.666667h170.666666v170.666666z" p-id="1478" fill="#027D30" data-spm-anchor-id="a313x.search_index.0.i3.27cf3a81FUkDaH" class="selected"></path></svg>